<svg xmlns="http://www.w3.org/2000/svg" xmlns:xlink="http://www.w3.org/1999/xlink" width="4578.341" height="2975.977" viewBox="0 0 4578.341 2975.977">
  <defs>
    <clipPath id="clip-path">
      <rect id="Rectangle_727" data-name="Rectangle 727" width="4216.608" height="1950.181" transform="translate(0 3209)" fill="#fff" stroke="#707070" stroke-width="1"/>
    </clipPath>
    <clipPath id="clip-path-2">
      <rect id="Rectangle_726" data-name="Rectangle 726" width="5012.496" height="3341.663" fill="none"/>
    </clipPath>
  </defs>
  <g id="Mask_Group_10" data-name="Mask Group 10" transform="translate(-831.131 -2007.792) rotate(-15.009)" clip-path="url(#clip-path)">
    <g id="Group_3564" data-name="Group 3564" transform="translate(2855.87 5812.258) rotate(180)" opacity="0.15" style="mix-blend-mode: darken;isolation: isolate">
      <g id="Group_3563" data-name="Group 3563" clip-path="url(#clip-path-2)">
        <g id="Group_3561" data-name="Group 3561" transform="translate(0 604.343)">
          <g id="Group_3555" data-name="Group 3555" transform="translate(0 101.657)" opacity="0.5">
            <path id="Path_17868" data-name="Path 17868" d="M0,0S1280.252,829.682,2392.2,1000.266" fill="none" stroke="#707070" stroke-miterlimit="10" stroke-width="0.25" style="mix-blend-mode: color-dodge;isolation: isolate"/>
            <path id="Path_17869" data-name="Path 17869" d="M0,0S1264.76,816.021,2392.2,928.748" transform="translate(0 71.518)" fill="none" stroke="#707070" stroke-miterlimit="10" stroke-width="0.25" style="mix-blend-mode: color-dodge;isolation: isolate"/>
            <path id="Path_17870" data-name="Path 17870" d="M0,0S1249.268,802.366,2392.2,857.23" transform="translate(0 143.036)" fill="none" stroke="#707070" stroke-miterlimit="10" stroke-width="0.25" style="mix-blend-mode: color-dodge;isolation: isolate"/>
            <path id="Path_17871" data-name="Path 17871" d="M0,0S1233.775,788.705,2392.2,785.712" transform="translate(0 214.554)" fill="none" stroke="#707070" stroke-miterlimit="10" stroke-width="0.25" style="mix-blend-mode: color-dodge;isolation: isolate"/>
            <path id="Path_17872" data-name="Path 17872" d="M0,0S1218.283,775.044,2392.2,714.194" transform="translate(0 286.074)" fill="none" stroke="#707070" stroke-miterlimit="10" stroke-width="0.25" style="mix-blend-mode: color-dodge;isolation: isolate"/>
            <path id="Path_17873" data-name="Path 17873" d="M0,0S1202.786,761.379,2392.2,642.669" transform="translate(0 357.599)" fill="none" stroke="#707070" stroke-miterlimit="10" stroke-width="0.25" style="mix-blend-mode: color-dodge;isolation: isolate"/>
            <path id="Path_17874" data-name="Path 17874" d="M0,0S1187.294,747.718,2392.2,571.149" transform="translate(0 429.116)" fill="none" stroke="#707070" stroke-miterlimit="10" stroke-width="0.25" style="mix-blend-mode: color-dodge;isolation: isolate"/>
            <path id="Path_17875" data-name="Path 17875" d="M0,0S1171.8,734.057,2392.2,499.631" transform="translate(0 500.634)" fill="none" stroke="#707070" stroke-miterlimit="10" stroke-width="0.25" style="mix-blend-mode: color-dodge;isolation: isolate"/>
            <path id="Path_17876" data-name="Path 17876" d="M0,0S1156.309,720.4,2392.2,428.113" transform="translate(0 572.152)" fill="none" stroke="#707070" stroke-miterlimit="10" stroke-width="0.25" style="mix-blend-mode: color-dodge;isolation: isolate"/>
            <path id="Path_17877" data-name="Path 17877" d="M0,0S1140.817,706.734,2392.2,356.6" transform="translate(0 643.67)" fill="none" stroke="#707070" stroke-miterlimit="10" stroke-width="0.25" style="mix-blend-mode: color-dodge;isolation: isolate"/>
            <path id="Path_17878" data-name="Path 17878" d="M0,0S1125.324,693.073,2392.2,285.078" transform="translate(0 715.19)" fill="none" stroke="#707070" stroke-miterlimit="10" stroke-width="0.25" style="mix-blend-mode: color-dodge;isolation: isolate"/>
            <path id="Path_17879" data-name="Path 17879" d="M0,0S1109.834,679.415,2392.2,213.56" transform="translate(0 786.708)" fill="none" stroke="#707070" stroke-miterlimit="10" stroke-width="0.25" style="mix-blend-mode: color-dodge;isolation: isolate"/>
            <path id="Path_17880" data-name="Path 17880" d="M0,0S1094.342,665.754,2392.2,142.04" transform="translate(0 858.226)" fill="none" stroke="#707070" stroke-miterlimit="10" stroke-width="0.25" style="mix-blend-mode: color-dodge;isolation: isolate"/>
            <path id="Path_17881" data-name="Path 17881" d="M0,0S1078.849,652.093,2392.2,70.522" transform="translate(0 929.744)" fill="none" stroke="#707070" stroke-miterlimit="10" stroke-width="0.25" style="mix-blend-mode: color-dodge;isolation: isolate"/>
            <path id="Path_17882" data-name="Path 17882" d="M0,1S1063.357,639.428,2392.2,0" transform="translate(0 1000.266)" fill="none" stroke="#707070" stroke-miterlimit="10" stroke-width="0.25" style="mix-blend-mode: color-dodge;isolation: isolate"/>
            <path id="Path_17883" data-name="Path 17883" d="M0,72.521S1047.858,697.285,2392.2,0" transform="translate(0 1000.266)" fill="none" stroke="#707070" stroke-miterlimit="10" stroke-width="0.25" style="mix-blend-mode: color-dodge;isolation: isolate"/>
            <path id="Path_17884" data-name="Path 17884" d="M0,144.039S1032.368,755.141,2392.2,0" transform="translate(0 1000.266)" fill="none" stroke="#707070" stroke-miterlimit="10" stroke-width="0.25" style="mix-blend-mode: color-dodge;isolation: isolate"/>
          </g>
          <g id="Group_3556" data-name="Group 3556" transform="translate(3095.863 0)" opacity="0.3" style="mix-blend-mode: color-dodge;isolation: isolate">
            <path id="Path_17885" data-name="Path 17885" d="M0,711.878S607.066-419.771,1916.622,170.542" fill="none" stroke="#707070" stroke-miterlimit="10" stroke-width="0.25"/>
            <path id="Path_17886" data-name="Path 17886" d="M0,648.2s158.262-261.691,482.028-450.75c318.147-186.144,799.821-306.9,1434.594-51.891" transform="translate(0 63.681)" fill="none" stroke="#707070" stroke-miterlimit="10" stroke-width="0.25"/>
            <path id="Path_17887" data-name="Path 17887" d="M0,584.669s162.278-235.853,489.114-404.38C809.866,14.214,1296.533-96.534,1916.622,120.733" transform="translate(0 127.208)" fill="none" stroke="#707070" stroke-miterlimit="10" stroke-width="0.25"/>
            <path id="Path_17888" data-name="Path 17888" d="M0,521.377S166.295,311.353,496.2,163.365C819.556,17.353,1311.215-83.378,1916.622,96.143" transform="translate(0 190.503)" fill="none" stroke="#707070" stroke-miterlimit="10" stroke-width="0.25"/>
            <path id="Path_17889" data-name="Path 17889" d="M0,458.457S170.3,274.272,503.278,146.818C829.245,20.873,1325.9-69.849,1916.622,71.926" transform="translate(0 253.421)" fill="none" stroke="#707070" stroke-miterlimit="10" stroke-width="0.25"/>
            <path id="Path_17890" data-name="Path 17890" d="M0,396.2s174.321-158.347,510.373-265.28C838.939,25.046,1340.583-55.656,1916.622,48.372" transform="translate(0 315.68)" fill="none" stroke="#707070" stroke-miterlimit="10" stroke-width="0.25"/>
            <path id="Path_17891" data-name="Path 17891" d="M0,335.143s178.518-131.817,517.457-218.9C848.8,31.109,1355.265-40.249,1916.631,26.03" transform="translate(0 376.726)" fill="none" stroke="#707070" stroke-miterlimit="10" stroke-width="0.25"/>
            <path id="Path_17892" data-name="Path 17892" d="M0,277.61S182.5,171.666,524.547,105.067C858.466,40.043,1369.956-21.351,1916.622,7.18" transform="translate(0 434.27)" fill="none" stroke="#707070" stroke-miterlimit="10" stroke-width="0.25"/>
            <path id="Path_17893" data-name="Path 17893" d="M0,231.714s186.473-80.084,531.633-126.171C868.11,60.617,1384.638,9.217,1916.622,0" transform="translate(0 480.155)" fill="none" stroke="#707070" stroke-miterlimit="10" stroke-width="0.25"/>
            <path id="Path_17894" data-name="Path 17894" d="M0,193.021s190.442-54.261,538.716-79.813C877.762,88.34,1399.322,46.963,1916.622,0" transform="translate(0 518.857)" fill="none" stroke="#707070" stroke-miterlimit="10" stroke-width="0.25"/>
            <path id="Path_17895" data-name="Path 17895" d="M0,154.317s194.418-28.464,545.8-33.443C887.406,116.036,1414.015,84.7,1916.622,0" transform="translate(0 557.561)" fill="none" stroke="#707070" stroke-miterlimit="10" stroke-width="0.25"/>
            <path id="Path_17896" data-name="Path 17896" d="M0,115.615s198.421-3.342,552.885,12.927c344.2,14.534,875.8-6.081,1363.737-128.542" transform="translate(0 596.263)" fill="none" stroke="#707070" stroke-miterlimit="10" stroke-width="0.25"/>
            <path id="Path_17897" data-name="Path 17897" d="M0,76.911S202.437,99.4,559.969,136.2c346.812,34.607,883.4,24,1356.653-136.2" transform="translate(0 634.967)" fill="none" stroke="#707070" stroke-miterlimit="10" stroke-width="0.25"/>
            <path id="Path_17898" data-name="Path 17898" d="M0,38.216S206.454,86.542,567.061,143.871C916.47,198.549,1458.054,197.953,1916.622,0" transform="translate(0 673.664)" fill="none" stroke="#707070" stroke-miterlimit="10" stroke-width="0.25"/>
            <path id="Path_17899" data-name="Path 17899" d="M0,0S210.472,74.164,574.145,152.027C926.162,226.766,1472.739,236.192,1916.622.488" transform="translate(0 711.878)" fill="none" stroke="#707070" stroke-miterlimit="10" stroke-width="0.25"/>
            <path id="Path_17900" data-name="Path 17900" d="M0,0S214.489,100,581.228,198.394c354.623,94.81,906.192,114.238,1335.4-159.2" transform="translate(0 711.878)" fill="none" stroke="#707070" stroke-miterlimit="10" stroke-width="0.25"/>
            <path id="Path_17901" data-name="Path 17901" d="M0,0S218.505,125.833,588.314,244.757c357.236,114.879,913.8,144.325,1328.308-166.863" transform="translate(0 711.878)" fill="none" stroke="#707070" stroke-miterlimit="10" stroke-width="0.25"/>
          </g>
          <g id="Group_3560" data-name="Group 3560" transform="translate(0 42)">
            <g id="Group_3558" data-name="Group 3558" transform="translate(0 183.769)" opacity="0.8" style="mix-blend-mode: color-dodge;isolation: isolate">
              <path id="Path_17919" data-name="Path 17919" d="M0,79.388S597.135-246.579,1908.645,422.517C2609.5,780.076,2950.476,377.07,3287.637,377.905,3795.57,379.181,4074.045,897.032,5012.5,308.9" transform="translate(0 317.049)" fill="none" stroke="#707070" stroke-miterlimit="10" stroke-width="0.5"/>
              <path id="Path_17920" data-name="Path 17920" d="M0,127.48S634.281-283.784,1933.914,371.06c727.157,362.784,1037.774,35.776,1390.338,33.783,512.666-1.592,808.442,456.6,1688.242-94.77" transform="translate(0 326.876)" fill="none" stroke="#707070" stroke-miterlimit="10" stroke-width="0.5"/>
              <path id="Path_17921" data-name="Path 17921" d="M0,181.472s669.1-491.9,1959.19,144.019c752.108,370.731,1033.7,116.177,1401.68,112.163,517.383-5.622,830.477,394.088,1651.624-120.527" transform="translate(0 330.809)" fill="none" stroke="#707070" stroke-miterlimit="10" stroke-width="0.5"/>
              <path id="Path_17922" data-name="Path 17922" d="M0,243.119S705.472-332.43,1984.457,287.576c777.885,377.087,1029.616,197.091,1413.028,190.567,522.109-8.875,852.5,331.564,1615-146.291" transform="translate(0 327.086)" fill="none" stroke="#707070" stroke-miterlimit="10" stroke-width="0.5"/>
              <path id="Path_17923" data-name="Path 17923" d="M0,310.184s742.056-659.59,2009.738-55.1C2813.5,638.367,3035.288,533.16,3434.114,524.051,3960.94,512.022,4308.654,793.094,5012.494,352" transform="translate(0 317.94)" fill="none" stroke="#707070" stroke-miterlimit="10" stroke-width="0.5"/>
              <path id="Path_17924" data-name="Path 17924" d="M0,381.743S778.834-362.278,2035.013,227.09c829.729,389.284,1021.474,359.1,1435.718,347.352,531.545-15.085,896.574,206.528,1541.762-197.812" transform="translate(0 304.303)" fill="none" stroke="#707070" stroke-miterlimit="10" stroke-width="0.5"/>
              <path id="Path_17925" data-name="Path 17925" d="M0,457.028S815.788-371.758,2060.289,202.814c855.793,395.112,1017.4,440.216,1447.06,425.747,536.269-18.051,918.611,144.005,1505.145-223.578" transform="translate(0 286.942)" fill="none" stroke="#707070" stroke-miterlimit="10" stroke-width="0.5"/>
              <path id="Path_17926" data-name="Path 17926" d="M0,535.43S852.893-378.441,2085.565,181.662C2967.511,582.4,3098.885,703.041,3543.967,685.8c541-20.946,940.645,81.492,1468.527-249.342" transform="translate(0 266.46)" fill="none" stroke="#707070" stroke-miterlimit="10" stroke-width="0.5"/>
              <path id="Path_17927" data-name="Path 17927" d="M0,616.458S890.14-382.794,2110.834,163.134c908.2,406.173,1009.255,602.6,1469.761,582.531,545.719-23.767,962.677,18.967,1431.91-275.1" transform="translate(0 243.358)" fill="none" stroke="#707070" stroke-miterlimit="10" stroke-width="0.5"/>
              <path id="Path_17928" data-name="Path 17928" d="M0,699.715S927.5-385.2,2136.112,146.83C3070.661,558.218,3141.29,830.7,3617.2,807.752,4167.64,781.22,4601.91,764.2,5012.487,506.889" transform="translate(0 218.023)" fill="none" stroke="#707070" stroke-miterlimit="10" stroke-width="0.5"/>
              <path id="Path_17929" data-name="Path 17929" d="M0,784.863S964.971-385.965,2161.388,132.423c960.989,416.384,1001.114,765.2,1492.44,739.322C4209,842.507,4660.578,765.667,5012.494,545.107" transform="translate(0 190.793)" fill="none" stroke="#707070" stroke-miterlimit="10" stroke-width="0.5"/>
              <path id="Path_17930" data-name="Path 17930" d="M0,871.637S1002.538-385.35,2186.657,119.643c987.527,421.144,997.06,846.578,1503.791,817.711C4250.367,905.46,4719.231,768.76,5012.5,584.969" transform="translate(0 161.942)" fill="none" stroke="#707070" stroke-miterlimit="10" stroke-width="0.5"/>
              <path id="Path_17931" data-name="Path 17931" d="M0,959.815S1040.192-383.553,2211.933,108.259c1014.153,425.669,993,928.014,1515.13,896.109,564.655-34.5,1050.82-231.116,1285.431-378.151" transform="translate(0 131.69)" fill="none" stroke="#707070" stroke-miterlimit="10" stroke-width="0.5"/>
              <path id="Path_17932" data-name="Path 17932" d="M0,1049.2S1077.913-380.757,2237.216,98.09C3278.084,528.021,3226.229,1108.645,3763.683,1072.6c569.473-35.964,1072.854-293.639,1248.813-403.915" transform="translate(0 100.222)" fill="none" stroke="#707070" stroke-miterlimit="10" stroke-width="0.5"/>
              <path id="Path_17933" data-name="Path 17933" d="M0,1139.64S1115.7-377.109,2262.48,88.979c1067.7,433.928,984.962,1091.776,1537.82,1052.9,574.212-38.823,1094.89-356.155,1212.2-429.672" transform="translate(0 67.707)" fill="none" stroke="#707070" stroke-miterlimit="10" stroke-width="0.5"/>
              <path id="Path_17934" data-name="Path 17934" d="M0,1231.541S1154.278-374.034,2287.756,81.314c1095.318,435.873,980.891,1173,1549.168,1131.286C4415.86,1170.91,4953.853,793.923,5012.5,757.165" transform="translate(0 33.73)" fill="none" stroke="#707070" stroke-miterlimit="10" stroke-width="0.5"/>
              <path id="Path_17935" data-name="Path 17935" d="M0,1323.188S1191.418-367.686,2313.032,73.405s976.828,1254.24,1560.51,1209.682,1138.952-481.2,1138.952-481.2" transform="translate(0 0)" fill="none" stroke="#707070" stroke-miterlimit="10" stroke-width="0.5"/>
            </g>
            <g id="Group_3559" data-name="Group 3559" transform="translate(0 196.064)" opacity="0.8" style="mix-blend-mode: color-dodge;isolation: isolate">
              <path id="Path_17936" data-name="Path 17936" d="M0,79.388S597.135-246.579,1908.645,422.517C2609.5,780.076,2950.476,377.07,3287.637,377.912c507.933,1.269,786.408,519.12,1724.859-69.013" transform="translate(0 317.045)" fill="none" stroke="#707070" stroke-miterlimit="10" stroke-width="0.25"/>
              <path id="Path_17937" data-name="Path 17937" d="M0,127.48S634.281-283.784,1933.914,371.06c727.157,362.777,1037.774,35.776,1390.338,33.783,512.666-1.6,808.442,456.6,1688.242-94.77" transform="translate(0 326.879)" fill="none" stroke="#707070" stroke-miterlimit="10" stroke-width="0.25"/>
              <path id="Path_17938" data-name="Path 17938" d="M0,181.472s669.1-491.9,1959.19,144.019c752.108,370.731,1033.7,116.177,1401.68,112.179,517.383-5.628,830.477,394.082,1651.624-120.534" transform="translate(0 330.804)" fill="none" stroke="#707070" stroke-miterlimit="10" stroke-width="0.25"/>
              <path id="Path_17939" data-name="Path 17939" d="M0,243.119S705.472-332.43,1984.457,287.576C2762.343,664.663,3014.073,484.668,3397.485,478.15c522.109-8.881,852.5,331.564,1615-146.3" transform="translate(0 327.082)" fill="none" stroke="#707070" stroke-miterlimit="10" stroke-width="0.25"/>
              <path id="Path_17940" data-name="Path 17940" d="M0,310.187s742.056-659.6,2009.738-55.1C2813.5,638.37,3035.288,533.147,3434.114,524.054,3960.94,512.018,4308.654,793.1,5012.494,352" transform="translate(0 317.937)" fill="none" stroke="#707070" stroke-miterlimit="10" stroke-width="0.25"/>
              <path id="Path_17941" data-name="Path 17941" d="M0,381.74S778.834-362.274,2035.013,227.087C2864.747,616.371,3056.485,586.2,3470.731,574.448c531.545-15.092,896.574,206.521,1541.762-197.819" transform="translate(0 304.301)" fill="none" stroke="#707070" stroke-miterlimit="10" stroke-width="0.25"/>
              <path id="Path_17942" data-name="Path 17942" d="M0,457.028S815.788-371.758,2060.289,202.814c855.793,395.112,1017.4,440.216,1447.06,425.754,536.269-18.058,918.611,144,1505.145-223.585" transform="translate(0 286.938)" fill="none" stroke="#707070" stroke-miterlimit="10" stroke-width="0.25"/>
              <path id="Path_17943" data-name="Path 17943" d="M0,535.43S852.893-378.441,2085.565,181.662C2967.511,582.4,3098.885,703.034,3543.967,685.8c541-20.953,940.645,81.492,1468.527-249.342" transform="translate(0 266.462)" fill="none" stroke="#707070" stroke-miterlimit="10" stroke-width="0.25"/>
              <path id="Path_17944" data-name="Path 17944" d="M0,616.458S890.14-382.794,2110.834,163.134c908.2,406.173,1009.255,602.6,1469.761,582.531,545.719-23.774,962.677,18.96,1431.91-275.106" transform="translate(0 243.351)" fill="none" stroke="#707070" stroke-miterlimit="10" stroke-width="0.25"/>
              <path id="Path_17945" data-name="Path 17945" d="M0,699.715S927.5-385.2,2136.112,146.83C3070.661,558.222,3141.29,830.7,3617.2,807.754c550.438-26.532,984.709-43.562,1395.286-300.87" transform="translate(0 218.018)" fill="none" stroke="#707070" stroke-miterlimit="10" stroke-width="0.25"/>
              <path id="Path_17946" data-name="Path 17946" d="M0,784.863s964.971-1170.83,2161.388-652.44C3122.377,548.8,3162.5,897.617,3653.828,871.746,4209,842.508,4660.578,765.668,5012.494,545.108" transform="translate(0 190.794)" fill="none" stroke="#707070" stroke-miterlimit="10" stroke-width="0.25"/>
              <path id="Path_17947" data-name="Path 17947" d="M0,871.635S1002.538-385.346,2186.657,119.641c987.527,421.144,997.06,846.585,1503.791,817.718,559.919-31.9,1028.784-168.6,1322.048-352.384" transform="translate(0 161.94)" fill="none" stroke="#707070" stroke-miterlimit="10" stroke-width="0.25"/>
              <path id="Path_17948" data-name="Path 17948" d="M0,959.813S1040.192-383.549,2211.933,108.256c1014.153,425.669,993,928.02,1515.13,896.113,564.655-34.506,1050.82-231.123,1285.431-378.155" transform="translate(0 131.688)" fill="none" stroke="#707070" stroke-miterlimit="10" stroke-width="0.25"/>
              <path id="Path_17949" data-name="Path 17949" d="M0,1049.2S1077.913-380.757,2237.216,98.09C3278.084,528.021,3226.229,1108.645,3763.683,1072.6c569.473-35.964,1072.854-293.639,1248.813-403.915" transform="translate(0 100.224)" fill="none" stroke="#707070" stroke-miterlimit="10" stroke-width="0.25"/>
              <path id="Path_17950" data-name="Path 17950" d="M0,1139.64S1115.7-377.109,2262.48,88.979c1067.7,433.934,984.962,1091.774,1537.82,1052.9,574.212-38.829,1094.89-356.161,1212.2-429.678" transform="translate(0 67.703)" fill="none" stroke="#707070" stroke-miterlimit="10" stroke-width="0.25"/>
              <path id="Path_17951" data-name="Path 17951" d="M0,1231.541S1154.278-374.034,2287.756,81.314c1095.318,435.88,980.891,1173.01,1549.168,1131.293,578.936-41.7,1116.928-418.684,1175.572-455.442" transform="translate(0 33.726)" fill="none" stroke="#707070" stroke-miterlimit="10" stroke-width="0.25"/>
              <path id="Path_17952" data-name="Path 17952" d="M0,1323.19S1191.418-367.691,2313.032,73.408s976.828,1254.233,1560.51,1209.682,1138.952-481.2,1138.952-481.2" transform="translate(0 0)" fill="none" stroke="#707070" stroke-miterlimit="10" stroke-width="0.25"/>
            </g>
            <path id="Path_17953" data-name="Path 17953" d="M0,55.906s652.18,928.9,1574.478,946.719c910.824,17.6,2128.646-1590.552,3438.016-768.5" transform="translate(0 328.313)" fill="none" stroke="#707070" stroke-miterlimit="10" stroke-width="1" style="mix-blend-mode: color-dodge;isolation: isolate"/>
            <path id="Path_17954" data-name="Path 17954" d="M0,1535.882S843.764,46.61,1847.8,1.544C2926.7-46.89,3264.6,1059.221,3870.347,1247.021c683.778,212.013,1142.146-8.548,1142.146-8.548" transform="translate(0 74.726)" fill="none" stroke="#707070" stroke-miterlimit="10" stroke-width="1" style="mix-blend-mode: color-dodge;isolation: isolate"/>
            <path id="Path_17955" data-name="Path 17955" d="M0,128.7S453.9-78.487,959.612,32.9c462.152,101.793,1477.744,1033.691,1975.036,1203,559.743,190.567,1452.4,26.733,2077.845-1104.974" transform="translate(0 128.541)" fill="none" stroke="#707070" stroke-miterlimit="10" stroke-width="1" style="mix-blend-mode: color-dodge;isolation: isolate"/>
            <path id="Path_17956" data-name="Path 17956" d="M0,798.185s564.173,293.8,1262.586,174.625C1861.6,870.605,2621.528-.949,3321.125,0c672.8.916,1109.919,284.375,1691.369,1053.018" transform="translate(0 427.265)" fill="none" stroke="#707070" stroke-miterlimit="10" stroke-width="1" style="mix-blend-mode: color-dodge;isolation: isolate"/>
            <path id="Path_17957" data-name="Path 17957" d="M5012.5,424.044S3815.62-502.438,2316.428,383.522C1143.523,1076.679,897.23,1274.05,0,740.107" transform="translate(0 0)" fill="none" stroke="#707070" stroke-miterlimit="10" stroke-width="1" style="mix-blend-mode: color-dodge;isolation: isolate"/>
            <path id="Path_17958" data-name="Path 17958" d="M5012.5,424.04S3815.62-502.442,2316.428,383.531C1143.523,1076.672,897.23,1274.043,0,740.1" transform="translate(0 21.653)" fill="none" stroke="#707070" stroke-miterlimit="10" stroke-width="0.25" style="mix-blend-mode: color-dodge;isolation: isolate"/>
          </g>
        </g>
        <g id="Group_3562" data-name="Group 3562" transform="translate(3116.945 1192.245)">
          <circle id="Ellipse_2816" data-name="Ellipse 2816" cx="64.605" cy="64.605" r="64.605" transform="translate(521.298 658.911) rotate(-13.227)" fill="#fff" style="mix-blend-mode: screen;isolation: isolate"/>
          <circle id="Ellipse_2817" data-name="Ellipse 2817" cx="64.605" cy="64.605" r="64.605" transform="translate(0 29.564) rotate(-13.227)" fill="#fff" style="mix-blend-mode: screen;isolation: isolate"/>
        </g>
      </g>
    </g>
  </g>
</svg>
